<?xml version="1.0" encoding="UTF-8"?><svg id="a" xmlns="http://www.w3.org/2000/svg" viewBox="0 0 103.2 108.86"><defs><style>.b{fill:#3851a3;}</style></defs><path class="b" d="M103.2,53.56v3.48c0,1.16-.07,2.32-.22,3.48H20.9c.14,4.33,1.12,8.4,2.94,12.22,1.81,3.82,4.25,7.14,7.29,9.95s6.56,5.01,10.56,6.59c3.99,1.59,8.24,2.38,12.74,2.38,6.97,0,12.99-1.52,18.07-4.57,5.08-3.05,9.07-6.75,11.97-11.1l14.37,11.54c-5.52,7.31-12.01,12.7-19.49,16.16-7.48,3.45-15.79,5.18-24.93,5.18-7.84,0-15.1-1.31-21.77-3.92-6.68-2.61-12.41-6.28-17.2-11-4.79-4.71-8.56-10.41-11.32-17.09C1.38,70.18,0,62.78,0,54.65s1.34-15.35,4.03-22.1,6.44-12.52,11.24-17.31S25.75,6.72,32.29,4.03C38.84,1.34,45.89,0,53.45,0s14.43,1.23,20.62,3.7c6.18,2.47,11.42,6.03,15.71,10.67,4.29,4.65,7.6,10.27,9.93,16.87,2.33,6.61,3.49,14.04,3.49,22.32Zm-20.9-8.27c-.15-4.06-.84-7.87-2.07-11.43-1.23-3.55-3.05-6.64-5.44-9.25-2.39-2.61-5.37-4.68-8.93-6.2-3.56-1.52-7.73-2.29-12.52-2.29-4.36,0-8.46,.76-12.3,2.29-3.85,1.52-7.18,3.59-10.02,6.2-2.83,2.61-5.15,5.7-6.97,9.25-1.82,3.56-2.87,7.37-3.16,11.43h61.4Z"/></svg>